<svg xmlns="http://www.w3.org/2000/svg" width="400" height="400" viewBox="0 0 400 400">
  <!-- Background -->
  <rect width="400" height="400" fill="#f7f7f7" rx="20" ry="20" />
  
  <!-- Jupyter-like Notebook Icon -->
  <g transform="translate(70, 50) scale(0.65)">
    <path d="M256,66.4c104.9,0,189.6,84.7,189.6,189.6S360.9,445.6,256,445.6S66.4,360.9,66.4,256S151.1,66.4,256,66.4z" 
          fill="#F37726" />
    <path d="M352.5,256c0,53.3-43.2,96.5-96.5,96.5s-96.5-43.2-96.5-96.5s43.2-96.5,96.5-96.5S352.5,202.7,352.5,256z" 
          fill="#FFFFFF" />
    <circle cx="183" cy="183" r="10" fill="#F37726" />
    <circle cx="183" cy="329" r="10" fill="#F37726" />
    <circle cx="329" cy="183" r="10" fill="#F37726" />
    <circle cx="329" cy="329" r="10" fill="#F37726" />
  </g>
  
  <!-- MCP Connection Lines -->
  <g stroke="#3771A1" stroke-width="5" fill="none">
    <path d="M200,30 L200,80" />
    <path d="M200,320 L200,370" />
    <path d="M30,200 L80,200" />
    <path d="M320,200 L370,200" />
    <path d="M80,80 L110,110" />
    <path d="M290,290 L320,320" />
    <path d="M80,320 L110,290" />
    <path d="M290,110 L320,80" />
  </g>
  
  <!-- MCP Text -->
  <text x="200" y="300" font-family="Arial, sans-serif" font-weight="bold" font-size="40" 
        fill="#3771A1" text-anchor="middle">MCP</text>
</svg> 